<svg width="24" height="24" viewBox="0 0 24 24" fill="none" xmlns="http://www.w3.org/2000/svg">
<path d="M21.75 13.5C21.75 18.75 15 23.25 15 23.25C15 23.25 8.25 18.75 8.25 13.5C8.25 11.7098 8.96116 9.9929 10.227 8.72703C11.4929 7.46116 13.2098 6.75 15 6.75C16.7902 6.75 18.5071 7.46116 19.773 8.72703C21.0388 9.9929 21.75 11.7098 21.75 13.5Z" stroke="#5C5C5C" stroke-width="2" stroke-linecap="round" stroke-linejoin="round"/>
<path d="M15 15.75C16.2426 15.75 17.25 14.7426 17.25 13.5C17.25 12.2574 16.2426 11.25 15 11.25C13.7574 11.25 12.75 12.2574 12.75 13.5C12.75 14.7426 13.7574 15.75 15 15.75Z" stroke="#5C5C5C" stroke-width="2" stroke-linecap="round" stroke-linejoin="round"/>
</svg>
