<svg width="50" height="45" viewBox="0 0 50 45" fill="none" xmlns="http://www.w3.org/2000/svg">
<path d="M37.5 22.5H30L27.5 25.875H22.5L20 22.5H12.5" stroke="black" stroke-width="2" stroke-linecap="round" stroke-linejoin="round"/>
<path d="M16.8125 14.7488L12.5 22.5V29.25C12.5 29.8467 12.7634 30.419 13.2322 30.841C13.7011 31.2629 14.337 31.5 15 31.5H35C35.663 31.5 36.2989 31.2629 36.7678 30.841C37.2366 30.419 37.5 29.8467 37.5 29.25V22.5L33.1875 14.7488C32.9805 14.3739 32.6615 14.0584 32.2662 13.8378C31.8709 13.6172 31.4151 13.5002 30.95 13.5H19.05C18.5849 13.5002 18.1291 13.6172 17.7338 13.8378C17.3385 14.0584 17.0195 14.3739 16.8125 14.7488V14.7488Z" stroke="black" stroke-width="2" stroke-linecap="round" stroke-linejoin="round"/>
</svg>
